<svg width="179" height="32" fill="none" xmlns="http://www.w3.org/2000/svg"><g clip-path="url(#clip0_1009_15109)" fill="#fff"><path d="M37.377.816c.128-.03.259-.05.39-.059 3.5 0 7.002-.018 10.503 0 2.29.014 4.59.081 6.807.705 5.79 1.626 9.248 5.36 10.218 11.223.534 3.234.407 6.453-.86 9.519-2.072 5.015-5.805 8.056-11.32 8.796-1.432.18-2.874.271-4.318.274-3.806.037-7.614.013-11.421.013l.001-30.47zm8.805 24.472c1.047 0 2.051.046 3.05-.009 3.214-.177 5.338-1.794 6.374-4.78.46-1.324.641-2.69.687-4.078.062-1.838-.051-3.66-.633-5.424-.771-2.336-2.267-3.999-4.827-4.348-1.504-.205-3.05-.102-4.578-.137-.02 0-.04.026-.073.05v18.726zm132.801 6.002h-7.457V18.503a14.554 14.554 0 00-.167-2.157c-.201-1.307-1.118-1.89-2.436-1.62-.915.185-1.636.727-2.391 1.218-.504.328-.699.702-.689 1.322.035 4.525.02 9.051.02 13.578v.441h-7.331v-.435c0-4.07.009-8.138 0-12.207 0-.769-.057-1.536-.17-2.297-.203-1.319-1.131-1.896-2.471-1.61-.936.2-1.677.755-2.444 1.274-.446.302-.6.644-.597 1.187.026 4.55.015 9.1.015 13.651v.442h-7.393V9.805h7.382v3.106l.405-.314c1.455-1.13 2.963-2.175 4.76-2.724a7.792 7.792 0 013.914-.224c1.847.386 3.151 1.423 3.808 3.25.12-.09.221-.166.32-.243 1.361-1.048 2.76-2.038 4.4-2.636a8.307 8.307 0 014.405-.38c2.114.384 3.322 1.701 3.758 3.71.217.95.335 1.92.352 2.895.035 4.935.018 9.87.02 14.805 0 .07-.009.138-.014.238"/><path d="M140.403 23.905l4.875 2.2a11.23 11.23 0 01-2.262 2.907c-1.872 1.714-4.131 2.583-6.635 2.863-2.209.247-4.407.181-6.527-.55-3.816-1.318-6.112-3.967-6.861-7.857-.514-2.673-.374-5.338.755-7.86 1.494-3.337 4.137-5.334 7.761-6.023 2.515-.479 5.031-.413 7.442.526 3.34 1.3 5.295 3.792 6.135 7.18.361 1.448.419 2.924.382 4.41-.009.317-.112.4-.429.398-4.566-.009-9.131-.009-13.697 0h-.461c-.419 2.02 1.092 4.226 3.215 4.662 2.557.526 4.817-.224 6.169-2.632.034-.062.078-.12.139-.218M137.749 18a4.88 4.88 0 00-.675-2.819c-1.143-1.786-3.913-1.676-4.959-.562-.898.962-1.068 2.136-1.13 3.381h6.764zM95.7 20.622c-.056 3.963-1.567 7.183-4.92 9.473-1.713 1.17-3.65 1.713-5.717 1.828-2.762.155-5.368-.337-7.662-1.946-2.743-1.924-4.29-4.555-4.634-7.856-.222-2.126-.066-4.222.827-6.191 1.64-3.617 4.46-5.807 8.454-6.442 2.424-.384 4.825-.226 7.079.798 3.555 1.612 5.677 4.35 6.344 8.15.127.72.155 1.456.229 2.186zm-8.038-.077c-.043-.72-.059-1.443-.14-2.16-.1-.947-.307-1.868-.773-2.726-1.021-1.885-4.132-1.905-5.14 0a5.93 5.93 0 00-.527 1.339c-.453 1.834-.445 3.697-.267 5.563.088.913.26 1.809.675 2.644.541 1.09 1.426 1.65 2.656 1.65 1.23 0 2.13-.542 2.682-1.622.135-.27.247-.55.335-.837.396-1.256.459-2.554.49-3.858"/><path d="M107.699 24.38c.786 1.042 1.721 1.84 2.895 2.337 1.537.652 3.132.855 4.767.46.413-.108.798-.3 1.131-.563.809-.632.698-1.604-.199-2.096-.774-.422-1.638-.55-2.5-.653-2.01-.235-4.001-.559-5.87-1.374a9.958 9.958 0 01-1.957-1.11c-1.801-1.347-2.343-3.222-2.123-5.352.32-3.088 2.15-5.054 5.032-6.007 3.519-1.166 7.038-.991 10.429.575a8.595 8.595 0 013.393 2.85l-4.403 2.69c-.394-.349-.742-.669-1.104-.971-1.537-1.283-3.298-1.73-5.27-1.267a2.117 2.117 0 00-1.227.743c-.436.562-.356 1.1.243 1.483.847.55 1.817.746 2.795.947 1.677.346 3.355.638 5.023 1.027a9.62 9.62 0 012.074.802c1.751.88 2.752 2.305 2.976 4.232.233 2.026-.049 3.943-1.36 5.603-1.004 1.271-2.349 2.077-3.899 2.51-3.676 1.026-7.345 1.047-10.948-.314-1.97-.745-3.502-2.075-4.396-3.68l4.498-2.871z"/><path d="M103.46 0H95.7v31.283h7.76V0zM73.164 9.806H65.59v21.477h7.573V9.806zm-.844-3.991a3.45 3.45 0 00.763-2.104c.007-.329-.012-.657-.013-.986v-1.1c0-.21-.013-.411-.011-.629 0-.323.012-.647.02-.98h-.023l-7.362 7.246v.014c.148 0 .287-.011.427-.013h.766c.394 0 .788-.013 1.182-.013.394 0 .828.008 1.242 0 .33.003.658-.036.978-.116.19-.05.376-.11.559-.18.11-.05.216-.107.319-.172a2.44 2.44 0 00.67-.45c.17-.164.332-.337.484-.519"/><path d="M67.17.746a3.472 3.472 0 011.013-.55 3.625 3.625 0 011.126-.2c.334 0 .668.012 1.002.012h1.111c.214 0 .428.013.64.011.33 0 .659-.012.997-.019v.022l-7.365 7.24h-.017c0-.147.01-.284.012-.422v-.752c0-.389.014-.776.016-1.164.001-.387-.01-.813 0-1.22a3.766 3.766 0 01.117-.962 5.37 5.37 0 01.183-.55 2.74 2.74 0 01.175-.312c.053-.109.112-.215.177-.317.083-.123.177-.238.28-.344a6.63 6.63 0 01.532-.473zM0 .76c.008.284.021.55.024.818v1.46c.007.752.026 1.511.03 2.257 0 .79-.02 1.578-.013 2.367a7.261 7.261 0 00.227 1.86c.1.363.218.72.357 1.069a5.2 5.2 0 00.337.607c.104.21.22.415.348.613.165.239.353.462.559.668.324.325.666.632 1.024.92.59.46 1.255.817 1.966 1.058.702.245 1.44.377 2.185.39.647.01 1.295-.023 1.944-.026.718 0 1.437.01 2.155.01.42 0 .829-.024 1.242-.02.638 0 1.276.024 1.933.036v-.043h.044c-.014-.646-.033-1.272-.038-1.9 0-.413.02-.814.02-1.22 0-.709-.013-1.415-.01-2.121 0-.638.039-1.274.026-1.912a6.613 6.613 0 00-.397-2.148 6.504 6.504 0 00-1.077-1.938 12.849 12.849 0 00-.937-1.007 4.96 4.96 0 00-.679-.55 6.795 6.795 0 00-.625-.34 5.339 5.339 0 00-.617-.33A10.731 10.731 0 008.942.986 7.641 7.641 0 007.048.763c-.8 0-1.603.015-2.405.012-.766 0-1.538-.022-2.296-.029H.862C.592.746.32.733.024.724v.03h-.031m16.464 14.052v.042c.656-.012 1.294-.031 1.932-.035.42 0 .828.02 1.243.02.718 0 1.437-.014 2.155-.01.648 0 1.297.036 1.944.025a7.004 7.004 0 002.184-.39 6.685 6.685 0 001.967-1.057c.358-.288.7-.596 1.024-.92a4.91 4.91 0 00.56-.669 6.95 6.95 0 00.345-.614c.125-.195.238-.398.336-.607.139-.35.258-.706.357-1.068a7.261 7.261 0 00.227-1.861c0-.789-.015-1.578-.012-2.367 0-.753.022-1.511.03-2.258v-1.46c0-.266.015-.532.022-.817h-.031V.73c-.29.008-.56.02-.839.022h-1.484c-.764 0-1.537.026-2.296.029-.802 0-1.604-.018-2.407-.013a7.63 7.63 0 00-1.892.224c-.368.098-.73.215-1.086.35-.213.098-.42.208-.618.332a6.808 6.808 0 00-.624.34c-.243.163-.47.347-.68.55-.33.318-.642.655-.936 1.007a6.505 6.505 0 00-1.073 1.933 6.608 6.608 0 00-.397 2.148c-.013.638.023 1.274.025 1.912 0 .706-.011 1.413-.011 2.12 0 .413.025.814.022 1.221 0 .628-.024 1.255-.038 1.9h.044"/><path d="M30.723.778V.735c-.657.014-1.294.032-1.933.037-.419 0-.827-.02-1.24-.02-.72 0-1.439.014-2.157.01-.649 0-1.296-.036-1.944-.025a7.005 7.005 0 00-2.185.39 6.687 6.687 0 00-1.967 1.064c-.359.288-.7.595-1.025.92-.206.206-.393.43-.559.668a6.602 6.602 0 00-.34.61 5.312 5.312 0 00-.336.608c-.139.35-.258.706-.357 1.068a7.276 7.276 0 00-.228 1.862c0 .789.016 1.578.013 2.367 0 .752-.022 1.505-.03 2.258v1.458c0 .267-.013.533-.022.818h.024L30.723.778zm.047 30.311c-.008-.285-.02-.55-.023-.818v-1.46c-.007-.753-.027-1.504-.03-2.258 0-.788.019-1.577.013-2.366a7.26 7.26 0 00-.228-1.86 10.183 10.183 0 00-.356-1.069 5.091 5.091 0 00-.337-.607 6.45 6.45 0 00-.345-.615 4.915 4.915 0 00-.56-.668 12.655 12.655 0 00-1.024-.92 6.685 6.685 0 00-1.966-1.057A7.004 7.004 0 0023.73 17c-.648-.012-1.296.023-1.944.026-.719 0-1.437-.011-2.155-.011-.42 0-.83.023-1.243.02-.639 0-1.276-.023-1.933-.036v.042h-.043c.014.647.032 1.274.038 1.902 0 .412-.021.813-.023 1.22 0 .708.016 1.414.011 2.12 0 .639-.037 1.275-.025 1.911.012.733.146 1.46.397 2.15.245.7.607 1.353 1.074 1.933.293.352.606.689.936 1.008.21.202.437.386.68.55.201.122.41.235.624.338.198.123.405.234.618.332.355.136.717.253 1.085.35.619.154 1.255.23 1.893.225.802 0 1.604-.015 2.407-.013.765 0 1.537.022 2.296.03h1.484c.271 0 .542.013.838.021v-.03h.033M.004.78c.013.645.032 1.273.037 1.9 0 .412-.021.815-.021 1.222 0 .706.014 1.413.01 2.12 0 .637-.037 1.274-.026 1.91a6.71 6.71 0 00.397 2.15 6.52 6.52 0 001.082 1.932c.293.353.606.689.936 1.008.21.202.437.386.68.55.2.12.408.232.62.334.198.123.405.234.618.332.355.136.717.252 1.086.35.618.154 1.254.23 1.892.225.802 0 1.604-.016 2.407-.013.766 0 1.53.02 2.296.03h1.484c.271 0 .542.014.839.022v-.03L.048.778H.004m14.31 16.264V17c-.657.013-1.294.032-1.933.036-.42 0-.829-.02-1.242-.02-.719 0-1.437.013-2.155.01-.649 0-1.297-.037-1.944-.026a7.004 7.004 0 00-2.185.39 6.687 6.687 0 00-1.966 1.058c-.358.288-.7.596-1.025.92a5.01 5.01 0 00-.559.668 6.597 6.597 0 00-.345.613 5.31 5.31 0 00-.337.608c-.138.35-.257.706-.356 1.068a7.278 7.278 0 00-.228 1.862c0 .789.015 1.578.013 2.366 0 .754-.023 1.505-.03 2.259v1.458c0 .268-.015.534-.023.824H.03v.03c.289-.008.559-.02.838-.021h1.485c.764-.007 1.537-.027 2.296-.03.802 0 1.604.019 2.406.013a7.577 7.577 0 001.893-.225 10.3 10.3 0 001.086-.35c.213-.097.419-.208.617-.332a7.12 7.12 0 00.625-.338c.243-.163.47-.347.68-.55.33-.319.642-.655.936-1.007a6.509 6.509 0 001.073-1.934c.25-.69.385-1.416.397-2.15.013-.636-.024-1.272-.025-1.91 0-.706.011-1.412.01-2.12 0-.413-.024-.814-.021-1.22 0-.629.023-1.255.037-1.903h-.043"/></g><defs><clipPath id="clip0_1009_15109"><path fill="#fff" d="M0 0h179v32H0z"/></clipPath></defs></svg>